<svg width="57" height="40" viewBox="0 0 57 40" fill="none" xmlns="http://www.w3.org/2000/svg">
<path d="M55.7012 6.25876C55.0469 3.79517 53.1192 1.85493 50.6715 1.19648C46.235 0 28.445 0 28.445 0C28.445 0 10.6551 0 6.21845 1.19648C3.7708 1.85503 1.84305 3.79517 1.18877 6.25876C0 10.7242 0 20.0408 0 20.0408C0 20.0408 0 29.3574 1.18877 33.8228C1.84305 36.2864 3.7708 38.1458 6.21845 38.8043C10.6551 40.0007 28.445 40.0007 28.445 40.0007C28.445 40.0007 46.2349 40.0007 50.6715 38.8043C53.1192 38.1458 55.0469 36.2864 55.7012 33.8228C56.89 29.3574 56.89 20.0408 56.89 20.0408C56.89 20.0408 56.89 10.7242 55.7012 6.25876ZM22.6267 28.4996V11.582L37.4956 20.041L22.6267 28.4996Z" fill="white"/>
</svg>
